# xmcd CD database file
#
# Track frame offsets:
#	150
#	18001
#	30556
#	46478
#	61650
#	78700
#	94089
#	105280
#	121476
#	129088
#	144444
#	159981
#	171120
#	185743
#	200782
#	219038
#	232451
#	250594
#	268316
#	285701
#
# Disc length: 4012 seconds
#
# Revision: 1
# Processed by: cddbd v1.5.2PL0 Copyright (c) Steve Scherf et al.
# Submitted via: CDex 1.51
#
DISCID=150faa14
DTITLE=Various Artist - Country Australia
DYEAR=2008
DGENRE=Country
TTITLE0=Adam Brand - Waiting on Sunshine
TTITLE1=Catherine Britt - Hillbilly Pickin' Ramblin' Girl
TTITLE2=Travis Sinclair - Midnight Run
TTITLE3=Bill Chambers - Teresa
TTITLE4=Tracey Coster - I Don't Want To Talk About Rain
TTITLE5=Peter Denahy - Picture In A Frame
TTITLE6=Talia Wittman - It's Too Late
TTITLE7=8 Ball Aitken and His Band - Cyclone Country
TTITLE8=Pixie Jenkins - Goin' To The Rodeo Today
TTITLE9=Michelle Little - Free To Be Me
TTITLE10=Anthony Classen - Take A Chance
TTITLE11=Mark Lucas and The Dead Setters - 7 Days
TTITLE12=Clelia Adams - Wildflowers
TTITLE13=Lee Forster - Under The Water Tank
TTITLE14=Dave Prior - Big Fat Bastards Like Me
TTITLE15=Jacqui Ryan - Baby Baby
TTITLE16=Crakajak - Rodeo Rodeo
TTITLE17=Troy Kemp - It's All Good
TTITLE18=Bolton - Rocken' Up
TTITLE19=Rob Cass and The Cosmic Cowboys - To Survive
EXTD=YEAR: 2008
EXTT0=
EXTT1=
EXTT2=
EXTT3=
EXTT4=
EXTT5=
EXTT6=
EXTT7=
EXTT8=
EXTT9=
EXTT10=
EXTT11=
EXTT12=
EXTT13=
EXTT14=
EXTT15=
EXTT16=
EXTT17=
EXTT18=
EXTT19=
PLAYORDER=
